<?xml version="1.0" encoding="utf-8"?>
<!-- Generator: Adobe Illustrator 19.0.0, SVG Export Plug-In . SVG Version: 6.00 Build 0)  -->
<svg version="1.1" id="Layer_1" xmlns="http://www.w3.org/2000/svg" xmlns:xlink="http://www.w3.org/1999/xlink" x="0px" y="0px"
	 viewBox="91 -46 202 102" style="enable-background:new 91 -46 202 102;" xml:space="preserve">
<style type="text/css">
	.st0{fill:#4D4D4D;}
	.st1{fill:#347CBA;}
</style>
<g>
	<path class="st0" d="M92,48.2c0.8-2.3,1.7-4.6,2.5-6.9c0.2-0.4,0.3-0.9,0.5-1.4c3.5,2.2,7.1,3.7,11,4.6c6.1,1.5,12.2,1.9,18.2,0.1
		c6.1-1.8,10.6-5.6,11.9-12.1c1.4-6.7,0.1-12.7-5.1-17.6c-3.8-3.5-8.3-5.6-13-7.4c-4.9-1.9-9.7-4.2-13.9-7.5
		c-7.4-5.8-11.1-13.2-9.9-22.7c1.3-10,7.2-16.4,16.4-19.9c7.2-2.7,15.6-3.3,23-1.3c3,0.8,6,1.9,9,3c0.8,0.3,1,0.7,0.7,1.6
		c-1,2.5-1.8,5-2.8,7.6c-3.1-1.8-6.3-3-9.7-3.6c-5.3-1-10.6-1.2-15.8,0.6c-12.4,4.3-12.8,18.7-5.7,25.4c3.6,3.4,8,5.6,12.5,7.6
		c4.9,2.1,9.8,4.3,14.2,7.4c5.6,4,9.7,9.1,10.9,16c2.8,14.9-4.8,27.2-19.5,31.2c-11,3-21.8,1.9-32.2-2.6c-1.1-0.5-2.2-1.2-3.3-1.8
		C92,48.4,92,48.3,92,48.2z"/>
	<path class="st0" d="M255.8,55c-1.2-3.3-2.3-6.6-3.5-9.9c-7.2-19.9-14.4-39.7-21.6-59.6c-0.1-0.3-0.2-0.7-0.4-1.2
		c0.5,0,0.8-0.1,1.2-0.1c2.9,0,5.8,0,8.8,0c0.9,0,1.3,0.3,1.6,1.2c5.9,17.5,11.8,35.1,17.8,52.6c1.8,5.3,3.6,10.6,5.4,16
		c0.1,0.4,0.3,0.7,0.5,1.1C262.3,55,259.1,55,255.8,55z"/>
	<path class="st0" d="M188.7,52.9c0-22.9,0-45.8,0-68.8c2.8,0,5.7,0,8.8,0c0.2,4.4,0.4,8.8,0.6,13.2c0.1,0,0.3,0,0.4,0.1
		c0.2-0.5,0.4-0.9,0.6-1.4c2.6-5.9,6.6-10.4,12.8-12.6c2.6-0.9,5.2-1.2,7.9-0.6c0.3,0.1,0.8,0.4,0.8,0.7c0.1,3,0,6.1,0,9.2
		c-0.7,0-1.3,0-1.8,0c-6.5-0.6-11.6,1.9-15.1,7.3c-3.3,5-4.3,10.8-4.3,16.7c0,11.5,0,23.1,0,34.6c0,0.5,0,1,0,1.7
		C195.9,52.9,192.4,52.9,188.7,52.9z"/>
	<path class="st0" d="M172.6,53c-3.5,0-6.9,0-10.4,0c0-23,0-45.9,0-68.8c3.5,0,6.8,0,10.4,0C172.6,7,172.6,30,172.6,53z"/>
	<path class="st1" d="M271.2,37.9c-1.3-4-2.7-8-4-12c-0.1-0.4,0-1,0.1-1.4c4.5-13.1,9-26.1,13.5-39.1c0.1-0.4,0.7-0.9,1-1
		c3.3-0.1,6.6,0,10.1,0c-6.9,18-13.7,35.7-20.5,53.5C271.4,37.8,271.3,37.9,271.2,37.9z"/>
	<path class="st0" d="M174.3-35.4c0,4.3-2.8,7.1-6.9,7.1c-3.9,0-6.9-3.1-6.9-7.2c0-4,3.1-7.1,7.1-7
		C171.6-42.4,174.3-39.5,174.3-35.4z"/>
</g>
</svg>
